<mxfile host="app.diagrams.net" modified="2022-10-27T16:17:46.893Z" agent="5.0 (Windows NT 10.0; Win64; x64) AppleWebKit/537.36 (KHTML, like Gecko) Chrome/106.0.0.0 Safari/537.36 Edg/106.0.1370.42" etag="SRQmoYwSIsXvre0aY0Ry" version="20.5.1" type="github">
  <diagram id="XTd4BKGl2KATXrgSTVb3" name="第 1 页">
    <mxGraphModel dx="1182" dy="574" grid="1" gridSize="10" guides="1" tooltips="1" connect="1" arrows="1" fold="1" page="1" pageScale="1" pageWidth="827" pageHeight="1169" math="0" shadow="0">
      <root>
        <mxCell id="0" />
        <mxCell id="1" parent="0" />
        <mxCell id="fBGqpblrRfGBrSMrNzTc-3" value="" style="edgeStyle=orthogonalEdgeStyle;rounded=0;orthogonalLoop=1;jettySize=auto;html=1;entryX=0;entryY=0.5;entryDx=0;entryDy=0;" edge="1" parent="1" source="fBGqpblrRfGBrSMrNzTc-1" target="fBGqpblrRfGBrSMrNzTc-2">
          <mxGeometry relative="1" as="geometry" />
        </mxCell>
        <mxCell id="fBGqpblrRfGBrSMrNzTc-7" style="edgeStyle=orthogonalEdgeStyle;rounded=0;orthogonalLoop=1;jettySize=auto;html=1;exitX=1;exitY=0.5;exitDx=0;exitDy=0;entryX=0;entryY=0.5;entryDx=0;entryDy=0;" edge="1" parent="1" source="fBGqpblrRfGBrSMrNzTc-1" target="fBGqpblrRfGBrSMrNzTc-6">
          <mxGeometry relative="1" as="geometry" />
        </mxCell>
        <mxCell id="fBGqpblrRfGBrSMrNzTc-1" value="价格折扣算法" style="text;html=1;strokeColor=none;fillColor=none;align=center;verticalAlign=middle;whiteSpace=wrap;rounded=0;" vertex="1" parent="1">
          <mxGeometry x="160" y="270" width="80" height="20" as="geometry" />
        </mxCell>
        <mxCell id="fBGqpblrRfGBrSMrNzTc-9" value="" style="edgeStyle=orthogonalEdgeStyle;rounded=0;orthogonalLoop=1;jettySize=auto;html=1;entryX=0;entryY=0.5;entryDx=0;entryDy=0;" edge="1" parent="1" source="fBGqpblrRfGBrSMrNzTc-2" target="fBGqpblrRfGBrSMrNzTc-8">
          <mxGeometry relative="1" as="geometry" />
        </mxCell>
        <mxCell id="fBGqpblrRfGBrSMrNzTc-11" value="" style="edgeStyle=orthogonalEdgeStyle;rounded=0;orthogonalLoop=1;jettySize=auto;html=1;entryX=0;entryY=0.5;entryDx=0;entryDy=0;" edge="1" parent="1" source="fBGqpblrRfGBrSMrNzTc-2" target="fBGqpblrRfGBrSMrNzTc-10">
          <mxGeometry relative="1" as="geometry" />
        </mxCell>
        <mxCell id="fBGqpblrRfGBrSMrNzTc-2" value="订票量&amp;gt;20" style="text;html=1;strokeColor=none;fillColor=none;align=left;verticalAlign=middle;whiteSpace=wrap;rounded=0;" vertex="1" parent="1">
          <mxGeometry x="300" y="200" width="60" height="20" as="geometry" />
        </mxCell>
        <mxCell id="fBGqpblrRfGBrSMrNzTc-13" value="" style="edgeStyle=orthogonalEdgeStyle;rounded=0;orthogonalLoop=1;jettySize=auto;html=1;" edge="1" parent="1" source="fBGqpblrRfGBrSMrNzTc-6" target="fBGqpblrRfGBrSMrNzTc-12">
          <mxGeometry relative="1" as="geometry" />
        </mxCell>
        <mxCell id="fBGqpblrRfGBrSMrNzTc-15" value="" style="edgeStyle=orthogonalEdgeStyle;rounded=0;orthogonalLoop=1;jettySize=auto;html=1;entryX=0;entryY=0.5;entryDx=0;entryDy=0;" edge="1" parent="1" source="fBGqpblrRfGBrSMrNzTc-6" target="fBGqpblrRfGBrSMrNzTc-14">
          <mxGeometry relative="1" as="geometry" />
        </mxCell>
        <mxCell id="fBGqpblrRfGBrSMrNzTc-6" value="订票量&amp;lt;=20" style="text;html=1;strokeColor=none;fillColor=none;align=center;verticalAlign=middle;whiteSpace=wrap;rounded=0;" vertex="1" parent="1">
          <mxGeometry x="300" y="330" width="70" height="20" as="geometry" />
        </mxCell>
        <mxCell id="fBGqpblrRfGBrSMrNzTc-21" value="" style="edgeStyle=orthogonalEdgeStyle;rounded=0;orthogonalLoop=1;jettySize=auto;html=1;" edge="1" parent="1" source="fBGqpblrRfGBrSMrNzTc-8" target="fBGqpblrRfGBrSMrNzTc-20">
          <mxGeometry relative="1" as="geometry" />
        </mxCell>
        <mxCell id="fBGqpblrRfGBrSMrNzTc-8" value="旅游时间 7-9 12月" style="text;html=1;strokeColor=none;fillColor=none;align=left;verticalAlign=middle;whiteSpace=wrap;rounded=0;" vertex="1" parent="1">
          <mxGeometry x="460" y="170" width="100" height="10" as="geometry" />
        </mxCell>
        <mxCell id="fBGqpblrRfGBrSMrNzTc-23" value="" style="edgeStyle=orthogonalEdgeStyle;rounded=0;orthogonalLoop=1;jettySize=auto;html=1;" edge="1" parent="1" source="fBGqpblrRfGBrSMrNzTc-10" target="fBGqpblrRfGBrSMrNzTc-22">
          <mxGeometry relative="1" as="geometry" />
        </mxCell>
        <mxCell id="fBGqpblrRfGBrSMrNzTc-10" value="旅游时间 1-6 10 11月" style="text;html=1;strokeColor=none;fillColor=none;align=left;verticalAlign=middle;whiteSpace=wrap;rounded=0;" vertex="1" parent="1">
          <mxGeometry x="460" y="230" width="120" height="10" as="geometry" />
        </mxCell>
        <mxCell id="fBGqpblrRfGBrSMrNzTc-17" value="" style="edgeStyle=orthogonalEdgeStyle;rounded=0;orthogonalLoop=1;jettySize=auto;html=1;" edge="1" parent="1" source="fBGqpblrRfGBrSMrNzTc-12" target="fBGqpblrRfGBrSMrNzTc-16">
          <mxGeometry relative="1" as="geometry" />
        </mxCell>
        <mxCell id="fBGqpblrRfGBrSMrNzTc-12" value="&lt;span style=&quot;text-align: left;&quot;&gt;旅游时间 7-9 12月&lt;/span&gt;" style="text;html=1;strokeColor=none;fillColor=none;align=center;verticalAlign=middle;whiteSpace=wrap;rounded=0;" vertex="1" parent="1">
          <mxGeometry x="455" y="310" width="105" height="20" as="geometry" />
        </mxCell>
        <mxCell id="fBGqpblrRfGBrSMrNzTc-19" value="" style="edgeStyle=orthogonalEdgeStyle;rounded=0;orthogonalLoop=1;jettySize=auto;html=1;" edge="1" parent="1" source="fBGqpblrRfGBrSMrNzTc-14" target="fBGqpblrRfGBrSMrNzTc-18">
          <mxGeometry relative="1" as="geometry" />
        </mxCell>
        <mxCell id="fBGqpblrRfGBrSMrNzTc-14" value="&lt;span style=&quot;text-align: left;&quot;&gt;旅游时间 1-6 10 11月&lt;/span&gt;" style="text;html=1;strokeColor=none;fillColor=none;align=center;verticalAlign=middle;whiteSpace=wrap;rounded=0;" vertex="1" parent="1">
          <mxGeometry x="455" y="350" width="120" height="20" as="geometry" />
        </mxCell>
        <mxCell id="fBGqpblrRfGBrSMrNzTc-16" value="&lt;span style=&quot;text-align: left;&quot;&gt;折扣5%&lt;/span&gt;" style="text;html=1;strokeColor=none;fillColor=none;align=center;verticalAlign=middle;whiteSpace=wrap;rounded=0;" vertex="1" parent="1">
          <mxGeometry x="640" y="310" width="60" height="20" as="geometry" />
        </mxCell>
        <mxCell id="fBGqpblrRfGBrSMrNzTc-18" value="&lt;span style=&quot;text-align: left;&quot;&gt;折扣20%&lt;/span&gt;" style="text;html=1;strokeColor=none;fillColor=none;align=center;verticalAlign=middle;whiteSpace=wrap;rounded=0;" vertex="1" parent="1">
          <mxGeometry x="655" y="350" width="75" height="20" as="geometry" />
        </mxCell>
        <mxCell id="fBGqpblrRfGBrSMrNzTc-20" value="折扣15%" style="text;html=1;strokeColor=none;fillColor=none;align=left;verticalAlign=middle;whiteSpace=wrap;rounded=0;" vertex="1" parent="1">
          <mxGeometry x="640" y="170" width="100" height="10" as="geometry" />
        </mxCell>
        <mxCell id="fBGqpblrRfGBrSMrNzTc-22" value="折扣30%" style="text;html=1;strokeColor=none;fillColor=none;align=left;verticalAlign=middle;whiteSpace=wrap;rounded=0;" vertex="1" parent="1">
          <mxGeometry x="660" y="230" width="120" height="10" as="geometry" />
        </mxCell>
      </root>
    </mxGraphModel>
  </diagram>
</mxfile>
